<svg xmlns="http://www.w3.org/2000/svg" viewBox="0 0 320 20" width="320" height="20" preserveAspectRatio="none" aria-hidden="true">
  <path fill="none" stroke="#c9a000" stroke-width="3" stroke-linecap="round" stroke-linejoin="round"
        d="M2 13c11-9 23 8 36-1s28-7 42 5 30-12 46-2 34 9 50-1 26-6 40 4 22-8 36 2 28 5 42-3"/>
  <path fill="none" stroke="#f5d24a" stroke-width="1.5" stroke-linecap="round" opacity="0.92"
        d="M0 14c16-10 30 9 48-2s34-5 52 6 38-11 56-1 30 7 48-2 36-4 52 5 28-7 40 3"/>
</svg>
