<?xml version="1.0" encoding="iso-8859-1"?>
<!-- Generator: Adobe Illustrator 19.0.0, SVG Export Plug-In . SVG Version: 6.00 Build 0)  -->
<svg version="1.1" id="Capa_1" xmlns="http://www.w3.org/2000/svg" xmlns:xlink="http://www.w3.org/1999/xlink" x="0px" y="0px"
	 viewBox="0 0 512 512" style="enable-background:new 0 0 512 512;" xml:space="preserve">
<g>
	<g>
		<path d="M389.12,133.12C389.12,59.72,329.4,0,256,0S122.88,59.72,122.88,133.12c0,75.08,64.532,151.122,112.763,169.718
			l-7.373,7.352c-2.908,2.929-3.789,7.352-2.212,11.162c1.577,3.83,5.325,6.328,9.462,6.328h13.66
			c30.577,72.95,14.438,89.743-7.885,112.538c-13.701,14.008-29.225,29.86-36.209,59.167c-1.331,5.489,2.068,11.018,7.578,12.329
			c0.799,0.205,1.597,0.287,2.376,0.287c4.649,0,8.847-3.154,9.953-7.864c5.693-23.777,18.534-36.905,30.945-49.582
			c27.955-28.57,44.38-53.494,15.401-126.874h5.141c4.137,0,7.885-2.499,9.462-6.328c1.577-3.809,0.696-8.233-2.212-11.162
			l-7.373-7.352C324.588,284.242,389.12,208.2,389.12,133.12z M256,61.44c-39.526,0-71.68,32.154-71.68,71.68
			c0,5.652-4.588,10.24-10.24,10.24c-5.653,0-10.24-4.588-10.24-10.24c0-50.811,41.349-92.16,92.16-92.16
			c5.652,0,10.24,4.588,10.24,10.24S261.652,61.44,256,61.44z"/>
	</g>
</g>
<g>
</g>
<g>
</g>
<g>
</g>
<g>
</g>
<g>
</g>
<g>
</g>
<g>
</g>
<g>
</g>
<g>
</g>
<g>
</g>
<g>
</g>
<g>
</g>
<g>
</g>
<g>
</g>
<g>
</g>
</svg>
